<?xml version="1.0" encoding="utf-8"?>
<!-- Generator: Adobe Illustrator 16.0.3, SVG Export Plug-In . SVG Version: 6.00 Build 0)  -->
<!DOCTYPE svg PUBLIC "-//W3C//DTD SVG 1.0//EN" "http://www.w3.org/TR/2001/REC-SVG-20010904/DTD/svg10.dtd">
<svg version="1.0" id="Layer_1" xmlns="http://www.w3.org/2000/svg" xmlns:xlink="http://www.w3.org/1999/xlink" x="0px" y="0px"
	 width="1080px" height="1080px" viewBox="0 0 1080 1080" enable-background="new 0 0 1080 1080" xml:space="preserve">
<g>
	<g>
		<polygon fill="#F6042E" points="321.402,523.566 189.896,523.566 222.772,556.439 354.278,556.439 		"/>
		<polygon fill="#F6042E" points="823.212,566.181 823.212,652.428 755.425,720.226 425.788,720.226 425.788,636.843 
			396.222,607.272 345.086,607.272 318.425,580.611 530.526,580.611 584.928,634.653 671.077,634.653 726.45,580.97 628,580.97 
			584.928,540.005 628,498.326 726.056,498.326 671.077,443.359 584.749,443.359 530.526,497.579 246.86,497.579 300.545,443.896 
			425.788,443.896 425.788,359.775 726.45,359.775 797.149,418.184 797.149,474.899 727.81,532.181 726.45,533.311 790.343,533.311 
					"/>
	</g>
	<path fill="#F6042E" d="M344.131,364.402v-4.626h25.434v4.626H344.131z M354.265,390.9v-30.233h5.163V390.9H354.265z
		 M371.433,390.9v-31.125h3.557l13.07,21.257h-2.402l13.072-21.257h3.557V390.9h-5.157v-22.141l1.154,0.266l-9.599,15.83h-3.648
		l-9.604-15.83l1.157-0.266V390.9H371.433z"/>
</g>
</svg>
