<?xml version="1.0" encoding="utf-8"?>
<!-- Generator: Adobe Illustrator 16.0.3, SVG Export Plug-In . SVG Version: 6.00 Build 0)  -->
<!DOCTYPE svg PUBLIC "-//W3C//DTD SVG 1.0//EN" "http://www.w3.org/TR/2001/REC-SVG-20010904/DTD/svg10.dtd">
<svg version="1.0" id="Layer_1" xmlns="http://www.w3.org/2000/svg" xmlns:xlink="http://www.w3.org/1999/xlink" x="0px" y="0px"
	 width="1080px" height="1080px" viewBox="0 0 1080 1080" enable-background="new 0 0 1080 1080" xml:space="preserve">
<g>
	<path fill="#F6042E" d="M259.542,462.39c0,9.829-4.787,16.811-12.675,20.303c10.604,2.846,16.557,10.473,16.557,21.856
		c0,16.165-11.507,25.479-31.684,25.479h-67.897V439.5h64.015C248.034,439.5,259.542,447.774,259.542,462.39 M229.795,469.243
		c0-5.173-3.232-7.762-9.695-7.762h-27.806v14.874h28.836C226.697,476.226,229.795,474.026,229.795,469.243 M233.678,500.28
		c0-4.654-3.489-7.239-9.699-7.115h-31.684v14.876h31.684C230.188,508.041,233.678,505.194,233.678,500.28"/>
	<polygon fill="#F6042E" points="367.143,439.499 367.143,461.481 303.775,461.481 303.775,473.769 358.092,473.769 
		358.092,495.756 303.775,495.756 303.775,508.041 367.143,508.041 367.143,530.027 275.325,530.027 275.325,439.499 	"/>
	<polygon fill="#F6042E" points="410.991,439.499 452.377,496.919 452.377,439.499 480.831,439.499 480.831,530.027 
		449.788,530.027 408.406,472.604 408.406,530.027 379.954,530.027 379.954,439.499 	"/>
	<path fill="#F6042E" d="M599.17,480.755v49.273h-16.817v-7.501c-8.924,6.075-20.947,9.567-34.917,9.567
		c-34.917,0-54.963-17.199-54.963-47.33c0-30.136,20.045-47.339,54.963-47.339c27.806,0,47.594,13.064,51.734,35.823h-29.745
		c-3.625-8.792-11.642-13.835-21.987-13.835c-16.04,0-25.22,9.182-25.22,25.351c0,16.162,9.18,25.345,25.22,25.345
		c10.346,0,18.362-5.561,21.987-12.544h-25.868v-16.811H599.17z"/>
	<polygon fill="#F6042E" points="641.461,439.499 641.461,481.012 682.972,439.499 719.571,439.499 674.306,484.764 
		719.571,530.027 682.972,530.027 641.461,488.512 641.461,530.027 613.007,530.027 613.007,439.499 	"/>
	<polygon fill="#F6042E" points="819.157,439.499 819.157,461.481 755.785,461.481 755.785,473.769 810.107,473.769 
		810.107,495.756 755.785,495.756 755.785,508.041 819.157,508.041 819.157,530.027 727.34,530.027 727.34,439.499 	"/>
	<polygon fill="#F6042E" points="831.968,439.499 860.417,439.499 860.417,508.041 923.788,508.041 923.788,530.027 
		831.968,530.027 	"/>
	<polygon fill="#F6042E" points="186.602,549.976 214.539,612.054 242.341,549.976 272.735,549.976 232.125,640.505 
		196.818,640.505 156.212,549.976 	"/>
	<path fill="#F6042E" d="M340.245,549.976l40.607,90.528h-30.39l-9.569-21.34h-40.475l-9.57,21.34H260.45l40.612-90.528H340.245z
		 M331.064,597.181l-10.347-23.151l-10.475,23.151H331.064z"/>
	<polygon fill="#F6042E" points="388.616,549.976 417.073,549.976 417.073,618.518 480.442,618.518 480.442,640.505 
		388.616,640.505 	"/>
	<path fill="#F6042E" d="M485.878,595.239c0-30.13,20.044-47.336,54.962-47.336c34.917,0,54.963,17.202,54.963,47.336
		c0,30.133-20.046,47.335-54.963,47.335C505.922,642.574,485.878,625.372,485.878,595.239 M540.84,620.589
		c16.037,0,25.222-9.183,25.222-25.35c0-16.168-9.185-25.345-25.222-25.345c-16.037,0-25.219,9.177-25.219,25.345
		C515.621,611.406,524.803,620.589,540.84,620.589"/>
	<path fill="#F6042E" d="M593.795,549.976h13.953v2.54h-13.953V549.976z M599.356,550.463h2.832v16.593h-2.832V550.463z
		 M608.776,567.056v-17.08h1.952l7.171,11.665h-1.319l7.174-11.665h1.949v17.08h-2.826v-12.15l0.632,0.146l-5.269,8.687h-2.001
		l-5.268-8.687l0.632-0.146v12.15H608.776z"/>
</g>
</svg>
